<?xml version="1.0" encoding="UTF-8"?>
<svg version="1.1" xmlns="http://www.w3.org/2000/svg" width="1024" height="1024">
<path d="M0 0 C337.92 0 675.84 0 1024 0 C1024 337.92 1024 675.84 1024 1024 C686.08 1024 348.16 1024 0 1024 C0 686.08 0 348.16 0 0 Z " fill="#FCF6EF" transform="translate(0,0)"/>
<path d="M0 0 C1.51923881 1.31136998 3.02014276 2.64434506 4.5 4 C5.2425 4.65097656 5.985 5.30195313 6.75 5.97265625 C21.46843393 19.64342388 32.09175215 40.12235186 32.93359375 60.296875 C32.95679798 62.4477919 32.95762187 64.59905206 32.9375 66.75 C32.92722778 68.4518042 32.92722778 68.4518042 32.91674805 70.18798828 C32.54513752 89.73720705 25.79831313 107.76623512 13.5 123 C14.32910889 123.20044922 15.15821777 123.40089844 16.01245117 123.60742188 C54.45142845 132.9852458 90.22253736 147.13259874 121.5 172 C122.4075 172.71542969 123.315 173.43085938 124.25 174.16796875 C138.6301365 185.70884535 152.20061355 198.39945724 163.5 213 C163.92394043 213.5475293 164.34788086 214.09505859 164.78466797 214.65917969 C195.32485125 254.4049352 209.08183466 298.31717905 211.5 348 C214.8133541 349.10445137 217.32695195 349.13304048 220.8125 349.125 C222.47732422 349.12886719 222.47732422 349.12886719 224.17578125 349.1328125 C227.36801125 349.00527335 230.36508827 348.59757773 233.5 348 C233.05269531 347.41734375 232.60539063 346.8346875 232.14453125 346.234375 C222.78875182 333.54721996 218.78515995 320.66837253 220.5 305 C222.60229201 297.22992874 226.15620217 290.05981959 232.875 285.3125 C233.41898438 284.91675781 233.96296875 284.52101563 234.5234375 284.11328125 C241.79043247 280.02021096 250.23446741 279.81824695 258.25 281.6171875 C266.2950842 284.45810786 273.90817329 290.26997221 277.7265625 298.046875 C283.33065802 312.19863135 282.30339694 324.8900215 277.5 339 C286.35403856 338.66588534 293.30192275 334.57963013 300.1875 329.1875 C304.40252734 326.40399138 306.46168317 325.92002672 311.5 326 C316.42310798 328.32222075 318.66350647 330.8986291 320.5 336 C321.0549118 339.80510946 320.75043147 341.52918883 318.9375 344.9375 C309.47522172 356.82600348 296.62014049 364.55271953 281.5 367 C274.10822382 367.56252287 266.64220601 367.55099983 259.328125 366.30859375 C254.99705106 365.95945616 253.32753296 366.59617196 249.625 368.75 C239.27107706 374.37741587 229.27472091 376.19297033 217.5625 376.0625 C216.39364258 376.05573242 216.39364258 376.05573242 215.20117188 376.04882812 C213.30074732 376.03716908 211.40036294 376.01923877 209.5 376 C209.42523437 376.85335938 209.35046875 377.70671875 209.2734375 378.5859375 C204.35190222 425.38877297 184.04977513 471.28334993 153.5 507 C152.52936359 508.15575952 151.55934655 509.3120394 150.58984375 510.46875 C149.5608612 511.68831516 148.53090291 512.90705769 147.5 514.125 C146.73840576 515.02714233 146.73840576 515.02714233 145.96142578 515.94750977 C142.97984247 519.42953551 139.87450679 522.51669723 136.4375 525.5625 C133.05380539 528.87717457 131.84813421 531.34288793 130.91381836 535.97192383 C130.55463821 537.70026962 130.55463821 537.70026962 130.1882019 539.46353149 C129.96109528 540.6305661 129.73398865 541.79760071 129.5 543 C129.28473663 544.0543222 129.06947327 545.10864441 128.84768677 546.19491577 C128.19462218 549.42229793 127.5654427 552.65360476 126.94140625 555.88671875 C126.71098129 557.06861282 126.48055634 558.2505069 126.2431488 559.46821594 C125.27095922 564.45496574 124.30389174 569.44270458 123.33666992 574.43041992 C113.39546872 625.63685766 113.39546872 625.63685766 106.5 631 C100.96061384 634.19788438 96.23868654 636.11556378 89.77856445 636.17700195 C88.60336746 636.18983719 87.42817047 636.20267242 86.21736145 636.21589661 C84.30959175 636.22697701 84.30959175 636.22697701 82.36328125 636.23828125 C81.05473679 636.246353 79.74619232 636.25442474 78.397995 636.26274109 C75.6247877 636.27775793 72.85160591 636.28759956 70.07836914 636.29516602 C66.54219364 636.30620169 63.0066524 636.34057184 59.47070026 636.38033772 C56.08075385 636.4129266 52.69087213 636.41729364 49.30078125 636.42578125 C48.03905594 636.44328934 46.77733063 636.46079742 45.47737122 636.47883606 C37.3703568 636.45892132 31.95949065 635.60088538 25.51171875 630.39453125 C18.91160699 622.50944198 17.80095932 613.04033992 16.3125 603.125 C16.13525391 601.99835937 15.95800781 600.87171875 15.77539062 599.7109375 C14.5 591.47752775 14.5 591.47752775 14.5 588 C13.12956543 588.16604736 13.12956543 588.16604736 11.73144531 588.33544922 C-33.65877289 593.79204162 -77.75318454 596.04533965 -123.25961304 590.71002197 C-129.32938977 590.00073121 -135.40514951 589.44888915 -141.5 589 C-141.66081055 589.8971875 -141.82162109 590.794375 -141.98730469 591.71875 C-142.59634771 595.08282213 -143.21640161 598.44448853 -143.84375 601.80517578 C-144.11178405 603.25326839 -144.37555043 604.70215828 -144.63476562 606.15185547 C-148.1800601 625.93732581 -148.1800601 625.93732581 -154.875 631.375 C-155.41898438 631.83648438 -155.96296875 632.29796875 -156.5234375 632.7734375 C-161.08062039 635.60141265 -165.61620749 636.25500813 -170.89746094 636.30639648 C-172.14605896 636.32238388 -173.39465698 636.33837128 -174.68109131 636.35484314 C-176.03218167 636.36122194 -177.383277 636.36661402 -178.734375 636.37109375 C-180.13673999 636.38007452 -181.53910408 636.3891966 -182.94146729 636.39845276 C-185.87669186 636.41490103 -188.81180297 636.42263493 -191.74707031 636.42553711 C-195.48380042 636.43090947 -199.21944365 636.46855786 -202.95586777 636.51428127 C-205.85235352 636.54422486 -208.74858329 636.55126441 -211.64521027 636.55226326 C-213.02137466 636.55643325 -214.39754214 636.56873619 -215.77355194 636.58978081 C-226.03896888 636.73425922 -233.57621035 635.38859512 -241.375 628.4375 C-246.89908822 620.83704995 -248.28349367 610.12978106 -249.625 601.0625 C-249.79185303 599.98274902 -249.95870605 598.90299805 -250.13061523 597.79052734 C-251.28803426 590.06570521 -252.10736446 582.34117134 -252.78613281 574.56201172 C-253.31881836 568.57679384 -254.00088968 562.63285154 -254.875 556.6875 C-254.9769165 555.92904785 -255.07883301 555.1705957 -255.18383789 554.38916016 C-256.22868261 547.65137646 -258.46993651 541.03314695 -263.9375 536.625 C-264.62972656 536.0578125 -265.32195312 535.490625 -266.03515625 534.90625 C-269.53368984 532.20056951 -273.0462167 529.5133254 -276.56884766 526.83911133 C-280.98595605 523.46196253 -285.13494608 519.85704398 -289.2265625 516.08984375 C-291.34630212 514.14128585 -293.50483469 512.25242667 -295.6875 510.375 C-303.12290491 503.8615853 -309.3217538 496.71208163 -315.5 489 C-316.16 488.20722656 -316.82 487.41445313 -317.5 486.59765625 C-329.4187851 472.15574124 -338.5958529 455.92030239 -347 439.25 C-347.44601562 438.36739502 -347.89203125 437.48479004 -348.3515625 436.57543945 C-348.76148438 435.75132568 -349.17140625 434.92721191 -349.59375 434.078125 C-349.96177734 433.33981445 -350.32980469 432.60150391 -350.70898438 431.84082031 C-351.5 430 -351.5 430 -351.5 428 C-353.36591797 427.83564453 -353.36591797 427.83564453 -355.26953125 427.66796875 C-370.79056653 426.22306288 -386.00777662 424.48757161 -397.02734375 412.3125 C-406.89247217 399.46022074 -407.25474357 382.17159608 -407.12890625 366.7109375 C-407.12973779 364.82768619 -407.13220784 362.94443498 -407.13621521 361.06118774 C-407.13904523 357.1533573 -407.12463543 353.24610898 -407.09692383 349.33837891 C-407.0626074 344.34641375 -407.0689644 339.35547116 -407.0875864 334.36345482 C-407.0981738 330.49080953 -407.0892067 326.61840046 -407.07420158 322.74577713 C-407.06904803 320.90469693 -407.06946694 319.06359181 -407.07574654 317.22251511 C-407.08122962 314.65350158 -407.06073505 312.08593774 -407.03344727 309.51708984 C-407.04323608 308.3964061 -407.04323608 308.3964061 -407.05322266 307.25308228 C-406.93973794 300.93332609 -404.91578715 295.74424943 -400.71875 290.9765625 C-400.1515625 290.53054688 -399.584375 290.08453125 -399 289.625 C-398.14921875 288.93277344 -398.14921875 288.93277344 -397.28125 288.2265625 C-391.6592219 284.35525368 -385.99338752 283.95272046 -379.33398438 283.70996094 C-370.12931539 283.36567624 -361.43380156 282.37467559 -352.5 280 C-351.56414062 279.80019531 -350.62828125 279.60039062 -349.6640625 279.39453125 C-344.74694935 277.78323109 -342.50187637 275.35236141 -340.20703125 270.82421875 C-338.19885426 266.48643598 -336.41006604 262.06323696 -334.61328125 257.63476562 C-325.80699551 236.79322271 -311.35925967 214.37894701 -293.7890625 199.90234375 C-286.07730296 193.6577227 -286.07730296 193.6577227 -282.7578125 184.734375 C-282.81503083 180.8537767 -283.39762711 177.08981723 -284.10351562 173.27929688 C-284.48224017 171.10209716 -284.71618848 168.96762951 -284.890625 166.765625 C-286.75132789 143.67853461 -291.5374293 120.00293914 -301.73974609 99.09472656 C-303.1177813 95.29782802 -302.72801119 91.79112756 -301.5 88 C-298.95561816 83.36559021 -295.3404991 80.92733831 -290.5 79 C-287.34446319 78.57431361 -284.24260457 78.57255904 -281.0625 78.625 C-280.17796143 78.63442627 -279.29342285 78.64385254 -278.38208008 78.65356445 C-258.97158128 79.09371579 -241.3690645 85.88110161 -224.5 95 C-223.44941406 95.5671875 -222.39882813 96.134375 -221.31640625 96.71875 C-209.28600229 103.49284201 -198.57552994 111.58573109 -188.5 121 C-186.98458886 122.33949277 -185.46413514 123.67331354 -183.9375 125 C-180.59230769 127.90769231 -180.59230769 127.90769231 -179.5 129 C-172.1697307 128.50123941 -165.24751708 126.86217359 -158.125 125.125 C-149.99281525 123.19272545 -141.88699229 121.4057642 -133.625 120.125 C-132.85365723 120.00527832 -132.08231445 119.88555664 -131.28759766 119.76220703 C-127.97198139 119.27459431 -124.8603593 119 -121.5 119 C-122.40492188 117.45892578 -122.40492188 117.45892578 -123.328125 115.88671875 C-127.80987522 108.15614395 -132.01775921 100.64282803 -134.5 92 C-134.85449219 90.90042969 -135.20898438 89.80085938 -135.57421875 88.66796875 C-137.0325827 82.69602083 -136.8720145 76.55038039 -136.87060547 70.4387207 C-136.87495565 68.33395983 -136.91129297 66.23134146 -136.94921875 64.12695312 C-137.05202389 52.00574551 -134.25976001 41.48427372 -128.625 30.75 C-128.27695312 30.07380615 -127.92890625 29.3976123 -127.5703125 28.70092773 C-116.53794907 7.59189964 -99.92427956 -5.97177267 -77.875 -14.3828125 C-51.09749777 -22.49548796 -21.9654001 -17.00108367 0 0 Z " fill="#E48582" transform="translate(572.5,152)"/>
<path d="M0 0 C7.13221531 5.83544889 11.95215325 12.05374148 13.75 21.25 C14.16740092 26.91637797 13.98932784 32.57925976 13.75 38.25 C12.83710205 38.25410889 11.9242041 38.25821777 10.98364258 38.26245117 C7.58165222 38.28949402 4.18144939 38.33863862 0.7800293 38.40258789 C-0.68925947 38.42571993 -2.15871292 38.4401524 -3.62817383 38.44555664 C-5.74664345 38.45488279 -7.86254065 38.49594127 -9.98046875 38.54296875 C-11.25301514 38.5586792 -12.52556152 38.57438965 -13.83666992 38.59057617 C-18.09865557 39.41395241 -19.59436059 40.88145399 -22.25 44.25 C-23.03176287 48.33253945 -22.43207445 49.92833514 -20.375 53.5625 C-18.52958729 56.28696671 -18.52958729 56.28696671 -16.25 57.25 C-14.00025839 57.40495763 -11.74628464 57.50010928 -9.4921875 57.56640625 C-8.27901855 57.60451416 -7.06584961 57.64262207 -5.81591797 57.68188477 C-4.26791504 57.72498779 -2.71991211 57.76809082 -1.125 57.8125 C3.78375 57.956875 8.6925 58.10125 13.75 58.25 C13.75 68.48 13.75 78.71 13.75 89.25 C-0.9375 89.5625 -0.9375 89.5625 -5.5456543 89.63793945 C-7.3541687 89.68760864 -7.3541687 89.68760864 -9.19921875 89.73828125 C-11.04519653 89.77755737 -11.04519653 89.77755737 -12.9284668 89.81762695 C-17.13106329 90.36469041 -19.98355683 91.63816324 -22.625 95 C-23.57835544 98.43207959 -23.16654656 100.82822616 -22.25 104.25 C-19.48046398 107.12011205 -17.80314359 108.16153501 -13.83666992 108.79589844 C-12.56412354 108.8168457 -11.29157715 108.83779297 -9.98046875 108.859375 C-8.73418701 108.88999023 -7.48790527 108.92060547 -6.20385742 108.95214844 C-4.63095947 108.96793945 -3.05806152 108.98373047 -1.4375 109 C6.0803125 109.12375 6.0803125 109.12375 13.75 109.25 C13.75 120.8 13.75 132.35 13.75 144.25 C-0.4375 144.5625 -0.4375 144.5625 -4.88745117 144.63793945 C-6.63505737 144.68760864 -6.63505737 144.68760864 -8.41796875 144.73828125 C-10.20110474 144.77755737 -10.20110474 144.77755737 -12.02026367 144.81762695 C-16.16801608 145.37289716 -19.01770602 146.68162584 -21.625 150 C-22.56697802 153.39112087 -22.09752199 155.85991203 -21.25 159.25 C-19.35888889 161.5681362 -17.91171969 162.91914015 -15.25 164.25 C-13.07325217 164.40469367 -10.8921652 164.50002106 -8.7109375 164.56640625 C-7.53837402 164.60451416 -6.36581055 164.64262207 -5.15771484 164.68188477 C-3.66191895 164.72498779 -2.16612305 164.76809082 -0.625 164.8125 C4.11875 164.956875 8.8625 165.10125 13.75 165.25 C13.75 174.82 13.75 184.39 13.75 194.25 C11.64238281 194.26417969 9.53476562 194.27835938 7.36328125 194.29296875 C5.31111893 194.32362588 3.2592767 194.36270425 1.20727539 194.40258789 C-0.21350702 194.42571503 -1.63445958 194.44015126 -3.05541992 194.44555664 C-5.10442466 194.45488661 -7.1507735 194.49595166 -9.19921875 194.54296875 C-11.04519653 194.56653442 -11.04519653 194.56653442 -12.9284668 194.59057617 C-17.13552675 195.42580358 -18.64251068 196.90300511 -21.25 200.25 C-21.75984054 204.40155867 -21.81619697 207.82840405 -19.25 211.25 C-15.38885363 214.04078943 -12.58340086 214.64968244 -7.85546875 214.76171875 C-6.65341797 214.79716797 -5.45136719 214.83261719 -4.21289062 214.86914062 C-2.34407227 214.90297852 -2.34407227 214.90297852 -0.4375 214.9375 C0.82771484 214.97166016 2.09292969 215.00582031 3.39648438 215.04101562 C6.51423445 215.12337129 9.63170759 215.19256529 12.75 215.25 C12.7962854 216.48520386 12.7962854 216.48520386 12.84350586 217.74536133 C12.93450562 219.36607544 12.93450562 219.36607544 13.02734375 221.01953125 C13.10456665 222.62598511 13.10456665 222.62598511 13.18334961 224.26489258 C14.15549788 229.38615792 17.76681147 231.28512228 21.75 234.25 C29.35390144 241.22390575 38.18250852 253.96204496 38.91113281 264.60327148 C39.23843532 286.17669293 37.52479322 301.73157098 21.9765625 318.0078125 C20.87441406 319.11769531 20.87441406 319.11769531 19.75 320.25 C19.15960937 320.88679688 18.56921875 321.52359375 17.9609375 322.1796875 C7.56945257 332.47961749 -7.98893147 336.15772271 -22.125 336.5625 C-38.36002089 336.24416626 -52.99113984 330.49126842 -64.7109375 319.1171875 C-78.09115732 304.00783158 -82.30164096 287.70355962 -81.47216797 267.89257812 C-80.22700908 253.08202894 -71.09351751 239.03981882 -60.25 229.25 C-58.59875136 228.54601125 -56.93319508 227.87376001 -55.25 227.25 C-55.27931107 226.48559097 -55.30862213 225.72118195 -55.33882141 224.93360901 C-56.50322192 192.98080541 -56.43780699 161.01742083 -56.43511021 129.04855216 C-56.43541728 123.71195253 -56.44363371 118.37540316 -56.45581055 113.03881836 C-56.58561681 54.60386356 -56.58561681 54.60386356 -55.48828125 32.56640625 C-55.45787436 31.85803053 -55.42746746 31.14965481 -55.39613914 30.41981316 C-54.91416057 19.8063101 -52.76315203 10.18054936 -45.25 2.25 C-31.39882182 -8.8822432 -15.09781578 -8.12959311 0 0 Z " fill="#F1A6A1" transform="translate(536.25,374.75)"/>
<path d="M0 0 C9.26254121 7.58964878 15.95654415 19.46700373 17.5546875 31.30859375 C17.64442552 33.86115936 17.68991503 36.38540776 17.68167114 38.93713379 C17.68323113 39.68531703 17.68479112 40.43350026 17.68639839 41.20435572 C17.69037343 43.70071056 17.68723232 46.19700413 17.68408203 48.69335938 C17.68543762 50.48744238 17.68721844 52.2815251 17.68939209 54.0756073 C17.69394763 58.94120912 17.69218457 63.80678971 17.689013 68.67239189 C17.68647972 73.76649914 17.68882965 78.86060459 17.69039917 83.95471191 C17.69221803 92.50903652 17.68982198 101.06335249 17.68505859 109.61767578 C17.67961652 119.50494469 17.68137938 129.39219298 17.686885 139.27946138 C17.69142419 147.77132738 17.69206272 156.26318718 17.68944633 164.755054 C17.68788801 169.82562314 17.68767765 174.89618258 17.69098282 179.9667511 C17.69387322 184.73392514 17.6918643 189.50107262 17.68608856 194.26824379 C17.68476725 196.01696542 17.68514442 197.76568928 17.68735123 199.51441002 C17.6900874 201.90298802 17.68665141 204.29148111 17.68167114 206.68005371 C17.68390186 207.37052748 17.68613259 208.06100125 17.68843091 208.77239847 C17.67247411 212.72348037 17.29322958 216.42992777 16.5546875 220.30859375 C16.08890389 224.0772066 15.8801384 227.55606013 16.5546875 231.30859375 C17.99097688 233.13659841 19.52964564 234.2100793 21.42578125 235.55078125 C32.23906229 244.47917844 40.88207442 262.76193465 42.5546875 276.30859375 C44.2833413 301.31856661 38.95543176 323.27785068 22.73828125 342.8671875 C8.23346783 359.08455492 -9.01293465 367.05867806 -30.4453125 368.30859375 C-44.07063348 368.98070518 -56.48345148 368.97616478 -69.4453125 364.30859375 C-70.33863281 364.03144531 -71.23195313 363.75429688 -72.15234375 363.46875 C-90.25501762 357.28248192 -103.30787043 340.74243097 -111.6953125 324.30859375 C-112.02474854 323.66849365 -112.35418457 323.02839355 -112.69360352 322.36889648 C-117.67765436 312.26698623 -118.90930454 303.05250301 -118.78149414 291.89453125 C-118.75778066 289.68062134 -118.76096842 287.46791223 -118.76757812 285.25390625 C-118.7495988 274.86061146 -117.50959275 266.68392651 -112.6953125 257.37109375 C-112.33896729 256.67306641 -111.98262207 255.97503906 -111.61547852 255.25585938 C-105.07074455 242.62747434 -105.07074455 242.62747434 -100.65780449 238.72979927 C-96.09419824 234.58565646 -94.93193067 231.24940963 -94.57229614 225.1166687 C-94.51192077 222.1852953 -94.5397073 219.25919413 -94.57470703 216.32763672 C-94.56844837 214.70698635 -94.5591032 213.08634542 -94.54692078 211.46572876 C-94.5225045 207.07605443 -94.54080062 202.68747656 -94.56655741 198.29784918 C-94.58600421 193.67962877 -94.56493774 189.06159486 -94.54806519 184.44338989 C-94.52198405 175.67948719 -94.53055723 166.91598733 -94.55233848 158.15208638 C-94.58249891 145.36312831 -94.55848723 132.57425255 -94.53733635 119.78529549 C-94.53428786 117.88145071 -94.53127211 115.97760587 -94.52828979 114.07376099 C-94.52678889 113.14215562 -94.52528799 112.21055025 -94.5237416 111.25071442 C-94.51604385 105.78003558 -94.51737805 100.30945334 -94.52693689 94.83877814 C-94.61240439 45.86940923 -94.61240439 45.86940923 -91.4453125 28.30859375 C-91.31382812 27.48488281 -91.18234375 26.66117187 -91.046875 25.8125 C-88.79319339 13.54481802 -81.55679328 3.5547681 -71.5859375 -3.80078125 C-48.68853245 -17.97536533 -21.78405611 -15.06788546 0 0 Z M-64.8125 17.90234375 C-71.32619501 26.38171004 -72.11567515 35.17563548 -72.62109375 45.5625 C-72.66058954 46.30802187 -72.70008533 47.05354374 -72.74077797 47.82165718 C-74.11947823 74.63291987 -73.70716239 101.54227115 -73.64591038 128.38148081 C-73.63428961 133.71746254 -73.63016511 139.05341057 -73.63061523 144.3894043 C-73.65201785 192.35792221 -73.65201785 192.35792221 -72.4453125 240.30859375 C-73.63012207 240.76540527 -73.63012207 240.76540527 -74.83886719 241.23144531 C-84.61481819 245.27148801 -90.74932355 257.69768403 -95.12890625 266.8125 C-100.80613852 281.46394079 -100.54475378 298.8179093 -94.4453125 313.30859375 C-87.00972572 328.93103125 -75.50997219 340.0680956 -59.375 346.30859375 C-43.41780405 351.75531663 -26.40406748 350.2777208 -11.1953125 343.18359375 C-4.69465513 339.72579727 0.43965437 335.57082208 5.5546875 330.30859375 C6.18890625 329.695 6.823125 329.08140625 7.4765625 328.44921875 C19.46220782 316.0393028 22.00729828 300.79660043 21.98852539 284.27270508 C21.84163892 276.32681744 20.74461097 270.17452433 16.5546875 263.30859375 C15.81025391 261.93960938 15.81025391 261.93960938 15.05078125 260.54296875 C10.88178107 253.35018772 4.16858247 244.11554124 -3.4453125 240.30859375 C-3.859375 237.5859375 -3.859375 237.5859375 -4.0703125 234.24609375 C-4.18246094 232.58900391 -4.18246094 232.58900391 -4.296875 230.8984375 C-4.34585938 230.04378906 -4.39484375 229.18914062 -4.4453125 228.30859375 C-5.23703857 228.29401123 -6.02876465 228.27942871 -6.84448242 228.2644043 C-10.44107793 228.18981019 -14.03675693 228.09318542 -17.6328125 227.99609375 C-19.50163086 227.96225586 -19.50163086 227.96225586 -21.40820312 227.92773438 C-22.61025391 227.89228516 -23.81230469 227.85683594 -25.05078125 227.8203125 C-26.15574951 227.79412842 -27.26071777 227.76794434 -28.39916992 227.7409668 C-31.77880217 227.26125784 -33.69621096 226.29561076 -36.4453125 224.30859375 C-39.01150947 220.8869978 -38.95515304 217.46015242 -38.4453125 213.30859375 C-35.83782318 209.96159886 -34.33083925 208.48439733 -30.1237793 207.64916992 C-28.27780151 207.62560425 -28.27780151 207.62560425 -26.39453125 207.6015625 C-25.73572464 207.58644119 -25.07691803 207.57131989 -24.39814758 207.55574036 C-22.3093505 207.51300809 -20.2220023 207.5040411 -18.1328125 207.49609375 C-16.71024833 207.47293761 -15.28771833 207.44756992 -13.86523438 207.41992188 C-10.39114741 207.35307355 -6.9210458 207.33197789 -3.4453125 207.30859375 C-3.4453125 197.73859375 -3.4453125 188.16859375 -3.4453125 178.30859375 C-12.76373105 178.09886993 -12.76373105 178.09886993 -22.08276367 177.9206543 C-23.24783447 177.8875415 -24.41290527 177.85442871 -25.61328125 177.8203125 C-26.80203857 177.79412842 -27.9907959 177.76794434 -29.21557617 177.7409668 C-33.36332858 177.18569659 -36.21301852 175.87696791 -38.8203125 172.55859375 C-39.76229052 169.16747288 -39.29283449 166.69868172 -38.4453125 163.30859375 C-36.55420139 160.99045755 -35.10703219 159.6394536 -32.4453125 158.30859375 C-30.26856467 158.15390008 -28.0874777 158.05857269 -25.90625 157.9921875 C-24.73368652 157.95407959 -23.56112305 157.91597168 -22.35302734 157.87670898 C-20.85723145 157.83360596 -19.36143555 157.79050293 -17.8203125 157.74609375 C-10.7046875 157.52953125 -10.7046875 157.52953125 -3.4453125 157.30859375 C-3.4453125 145.75859375 -3.4453125 134.20859375 -3.4453125 122.30859375 C-13.42195829 122.13831582 -13.42195829 122.13831582 -23.39916992 122.01074219 C-24.64545166 121.98012695 -25.8917334 121.94951172 -27.17578125 121.91796875 C-28.44832764 121.89702148 -29.72087402 121.87607422 -31.03198242 121.85449219 C-34.99711926 121.22034256 -36.66751464 120.16634441 -39.4453125 117.30859375 C-40.83847951 112.88323973 -40.84523683 111.07987639 -38.6953125 106.93359375 C-36.4453125 104.30859375 -36.4453125 104.30859375 -33.4453125 103.30859375 C-31.1627426 103.15714276 -28.87643544 103.05972396 -26.58984375 102.9921875 C-25.37917236 102.95407959 -24.16850098 102.91597168 -22.92114258 102.87670898 C-21.38224365 102.83360596 -19.84334473 102.79050293 -18.2578125 102.74609375 C-10.925625 102.52953125 -10.925625 102.52953125 -3.4453125 102.30859375 C-3.4453125 92.07859375 -3.4453125 81.84859375 -3.4453125 71.30859375 C-13.09290871 71.17780061 -13.09290871 71.17780061 -22.7409668 71.10083008 C-23.94664307 71.0727124 -25.15231934 71.04459473 -26.39453125 71.015625 C-27.62518311 70.99991455 -28.85583496 70.9842041 -30.1237793 70.96801758 C-34.30134679 70.1386453 -35.77825559 68.55257702 -38.4453125 65.30859375 C-39.88962105 62.41997666 -39.82219756 60.51211674 -39.4453125 57.30859375 C-36.80425962 53.91963209 -35.29813339 52.47335087 -31.03198242 51.64916992 C-29.12316284 51.62560425 -29.12316284 51.62560425 -27.17578125 51.6015625 C-26.49477859 51.58644119 -25.81377594 51.57131989 -25.11213684 51.55574036 C-22.95202187 51.51299297 -20.79330757 51.5040394 -18.6328125 51.49609375 C-17.16207248 51.47293886 -15.69136552 51.44757144 -14.22070312 51.41992188 C-10.62893279 51.35720215 -7.03762846 51.3247625 -3.4453125 51.30859375 C-2.9040127 38.48279571 -2.9899533 28.32904557 -11.5078125 17.93359375 C-18.38348669 10.7733304 -27.1457174 7.28234963 -36.97900391 7.01635742 C-48.25275485 6.90712075 -57.18492187 9.01076695 -64.8125 17.90234375 Z " fill="#523F3C" transform="translate(553.4453125,361.69140625)"/>
<path d="M0 0 C12.81621377 8.50837158 23.0973051 21.81163911 26.265625 37.16796875 C27.64034579 57.43052003 25.56929216 73.67347751 11.890625 89.48046875 C1.64179033 100.28329448 -10.67214578 107.84308243 -25.87109375 108.50390625 C-45.08256199 108.81665108 -59.04427611 105.01242925 -73.41015625 91.59375 C-77.06581913 87.77834387 -79.98395067 83.6686631 -82.734375 79.16796875 C-83.13398438 78.5234375 -83.53359375 77.87890625 -83.9453125 77.21484375 C-91.42494552 63.83023729 -91.37583959 47.10804043 -87.82421875 32.57421875 C-83.11679103 17.86139806 -72.3614093 4.59549471 -58.734375 -2.83203125 C-38.94553696 -11.60416663 -18.71779247 -11.59865443 0 0 Z " fill="#F7B3AE" transform="translate(551.734375,169.83203125)"/>
<path d="M0 0 C7.13221531 5.83544889 11.95215325 12.05374148 13.75 21.25 C14.16740092 26.91637797 13.98932784 32.57925976 13.75 38.25 C12.83710205 38.25410889 11.9242041 38.25821777 10.98364258 38.26245117 C7.58165222 38.28949402 4.18144939 38.33863862 0.7800293 38.40258789 C-0.68925947 38.42571993 -2.15871292 38.4401524 -3.62817383 38.44555664 C-5.74664345 38.45488279 -7.86254065 38.49594127 -9.98046875 38.54296875 C-11.25301514 38.5586792 -12.52556152 38.57438965 -13.83666992 38.59057617 C-18.09865557 39.41395241 -19.59436059 40.88145399 -22.25 44.25 C-23.03176287 48.33253945 -22.43207445 49.92833514 -20.375 53.5625 C-18.52958729 56.28696671 -18.52958729 56.28696671 -16.25 57.25 C-14.00025839 57.40495763 -11.74628464 57.50010928 -9.4921875 57.56640625 C-8.27901855 57.60451416 -7.06584961 57.64262207 -5.81591797 57.68188477 C-4.26791504 57.72498779 -2.71991211 57.76809082 -1.125 57.8125 C3.78375 57.956875 8.6925 58.10125 13.75 58.25 C13.75 68.48 13.75 78.71 13.75 89.25 C9.22736941 89.3973341 4.70483491 89.54098753 0.18188477 89.67724609 C-1.33867978 89.72393628 -2.8591946 89.77229257 -4.37963867 89.82275391 C-21.346732 90.38317694 -38.25638771 90.25 -55.25 90.25 C-55.25 116.65 -55.25 143.05 -55.25 170.25 C-55.58 170.25 -55.91 170.25 -56.25 170.25 C-56.29735174 155.74724143 -56.33229046 141.24449347 -56.35362434 126.74167252 C-56.36380651 120.00320866 -56.37787306 113.26480085 -56.40087891 106.52636719 C-56.57185605 54.89984679 -56.57185605 54.89984679 -55.4921875 33.046875 C-55.46166416 32.32598946 -55.43114082 31.60510391 -55.39969254 30.86237335 C-54.91884832 20.06460585 -52.9019269 10.32703395 -45.25 2.25 C-31.39882182 -8.8822432 -15.09781578 -8.12959311 0 0 Z " fill="#F8DDD4" transform="translate(536.25,374.75)"/>
<path d="M0 0 C1.16748779 0.19682373 2.33497559 0.39364746 3.5378418 0.59643555 C13.42299188 2.4603147 13.42299188 2.4603147 17.25 6.625 C19.71219772 10.31829658 20.04198683 13.3399344 19.25 17.625 C17.25 20.625 17.25 20.625 14.25 22.625 C7.75963603 23.00105113 1.73842217 22.0121383 -4.62890625 20.8671875 C-23.81143575 17.59929491 -42.93708509 17.33457004 -62.33953857 17.42938232 C-65.15826002 17.44028885 -67.9769335 17.43984792 -70.79567242 17.43924427 C-74.20104001 17.43958282 -77.60636163 17.44841841 -81.01171875 17.45703125 C-82.25870041 17.45814407 -83.50568207 17.4592569 -84.79045105 17.46040344 C-91.19898275 17.49516844 -97.39504178 17.8057402 -103.75 18.625 C-105.39709238 18.7497258 -107.04554292 18.85936853 -108.6953125 18.94140625 C-109.53779541 18.98354248 -110.38027832 19.02567871 -111.24829102 19.0690918 C-118.6008215 19.40053313 -125.95222135 19.7298941 -133.3125 19.8125 C-134.46878906 19.82667969 -135.62507813 19.84085937 -136.81640625 19.85546875 C-139.74333707 19.62552345 -141.34313847 19.2677785 -143.75 17.625 C-146.26250583 13.85624125 -146.28016086 12.09349866 -145.75 7.625 C-142.13233772 1.92444126 -138.07052765 -0.37667236 -131.40966797 -1.91577148 C-90.01087513 -9.06384651 -41.25724734 -7.03281998 0 0 Z " fill="#53403D" transform="translate(577.75,302.375)"/>
<path d="M0 0 C5.8551958 2.8723602 9.90660426 7.24047743 12.3125 13.3125 C14.15799721 23.21107593 12.43744492 31.23000317 7.25 39.9375 C3.14927798 43.69649518 -1.37917742 46.16417399 -7 46.5625 C-12.96439327 46.23375391 -17.34379583 42.69978849 -21.375 38.5625 C-25.54064165 31.99360356 -25.9399028 25.16946538 -24.5703125 17.63671875 C-22.57322288 10.49897252 -18.19824768 5.76605205 -12.6875 1 C-8.45019905 -0.57667012 -4.45757521 -0.63782025 0 0 Z " fill="#523F3C" transform="translate(311,411)"/>
<path d="M0 0 C2.5 1 2.5 1 4.3125 3 C6.55688009 8.67001285 6.10864076 13.89929338 4 19.5625 C3.505 20.696875 3.01 21.83125 2.5 23 C-2.041729 18.94926873 -4.95530825 15.05161125 -5.78515625 8.87890625 C-5.91197778 5.87378746 -5.83014856 3.57341593 -4.3125 0.9375 C-2.5 0 -2.5 0 0 0 Z " fill="#FCF6F3" transform="translate(823.5,459)"/>
<path d="M0 0 C9.24 0 18.48 0 28 0 C28 11.22 28 22.44 28 34 C12.16 34.495 12.16 34.495 -4 35 C0.28468175 31.78648868 1.03475523 31.63286405 6.078125 31.70703125 C7.12387695 31.71452393 8.16962891 31.7220166 9.24707031 31.72973633 C10.56803711 31.75704834 11.88900391 31.78436035 13.25 31.8125 C17.4575 31.874375 21.665 31.93625 26 32 C26 21.77 26 11.54 26 1 C17.42 1 8.84 1 0 1 C0 0.67 0 0.34 0 0 Z " fill="#F9B3AC" transform="translate(522,485)"/>
<path d="M0 0 C0.66 0 1.32 0 2 0 C2 9.57 2 19.14 2 29 C-14.5 29 -31 29 -48 29 C-48 28.67 -48 28.34 -48 28 C-31.98279182 26.96663173 -16.05144859 26.92131643 0 27 C0 18.09 0 9.18 0 0 Z " fill="#F9E8DE" transform="translate(548,435)"/>
<path d="M0 0 C0.66 0.33 1.32 0.66 2 1 C-7.18465883 8.75426114 -13.81278602 13.50052402 -26 14 C-25.45144652 9.428721 -24.58255197 5.32564205 -23 1 C-21.53273202 4.81489674 -22.56663581 7.29011622 -24 11 C-14.7336219 10.65032535 -6.85069549 6.14200285 0 0 Z " fill="#DF6F72" transform="translate(874,480)"/>
<path d="M0 0 C0.99 0.33 1.98 0.66 3 1 C2.5153125 1.48726562 2.030625 1.97453125 1.53125 2.4765625 C-8.5706178 13.16123036 -14.60188067 26.07262211 -19 40 C-19.33 40 -19.66 40 -20 40 C-19.5117457 33.87275234 -18.1254224 29.19321142 -15.4375 23.6875 C-15.08469971 22.95055908 -14.73189941 22.21361816 -14.3684082 21.4543457 C-11.22492944 15.0817898 -7.44567897 9.54970568 -3 4 C-1.99601573 2.66966419 -0.99460567 1.33736208 0 0 Z " fill="#DC6569" transform="translate(458,161)"/>
<path d="M0 0 C0 3.76227066 -1.26998092 5.6681114 -3 9 C-6.08812059 15.77011052 -7.1319883 20.87725178 -7.0625 28.3125 C-7.05347656 29.56675781 -7.04445313 30.82101562 -7.03515625 32.11328125 C-7.02355469 33.06589844 -7.01195312 34.01851563 -7 35 C-10.28282079 31.71717921 -9.43482049 27.23533422 -9.44042969 22.81762695 C-9.25785188 14.92611623 -7.32948729 7.56303047 -1.828125 1.67578125 C-1.22484375 1.12277344 -0.6215625 0.56976563 0 0 Z " fill="#DF6F72" transform="translate(802,441)"/>
<path d="M0 0 C2.79192205 -0.05380578 5.5828141 -0.09357669 8.375 -0.125 C9.1690625 -0.14175781 9.963125 -0.15851562 10.78125 -0.17578125 C12.85492015 -0.19335473 14.92883241 -0.10335168 17 0 C17.66 0.66 18.32 1.32 19 2 C13.39 2 7.78 2 2 2 C1.87625 3.44375 1.7525 4.8875 1.625 6.375 C1.25 10.75 1.25 10.75 -1 13 C-1.0272415 11.58344207 -1.04650467 10.16672955 -1.0625 8.75 C-1.07410156 7.96109375 -1.08570313 7.1721875 -1.09765625 6.359375 C-1.00356049 4.08602141 -0.58351934 2.18870232 0 0 Z " fill="#FEFBF9" transform="translate(782,528)"/>
<path d="M0 0 C10.25975808 1.82395699 17.93388043 9.10271011 23.85546875 17.3125 C24.23316406 17.869375 24.61085938 18.42625 25 19 C24.67 19.66 24.34 20.32 24 21 C23.32195313 20.20335937 22.64390625 19.40671875 21.9453125 18.5859375 C16.80791292 12.68926595 12.1290202 7.84970046 5.09375 4.18359375 C3.01081118 3.00611155 1.59725528 1.76619574 0 0 Z " fill="#483A37" transform="translate(539,355)"/>
<path d="M0 0 C0.33 0 0.66 0 1 0 C1.51003854 3.16513278 2.00615957 6.33230284 2.5 9.5 C2.64308594 10.386875 2.78617187 11.27375 2.93359375 12.1875 C3.75865611 17.53076099 4.15157107 22.59396514 4 28 C-0.38400191 23.61599809 0.09773908 13.68782482 -0.125 7.5625 C-0.125 5.03801901 -0.09439954 2.5225656 0 0 Z " fill="#DD7976" transform="translate(322,733)"/>
<path d="M0 0 C0.66 0.66 1.32 1.32 2 2 C1.67 2.99 1.34 3.98 1 5 C0.01 3.68 -0.98 2.36 -2 1 C-5.29075996 1.37904208 -5.29075996 1.37904208 -8 3 C-8.07244053 5.01964199 -8.08377188 7.04167124 -8.0625 9.0625 C-8.04896484 10.71958984 -8.04896484 10.71958984 -8.03515625 12.41015625 C-8.02355469 13.26480469 -8.01195312 14.11945313 -8 15 C-10.46803355 12.53196645 -10.68160689 10.5107073 -11.03515625 7.10546875 C-10.98022004 3.81540015 -9.82766409 1.67622242 -8 -1 C-4.34765818 -2.21744727 -3.37046678 -1.64202228 0 0 Z " fill="#DE6D71" transform="translate(827,459)"/>
<path d="M0 0 C0.33 0 0.66 0 1 0 C1.33 8.91 1.66 17.82 2 27 C0.68 26.67 -0.64 26.34 -2 26 C-1.67 25.67 -1.34 25.34 -1 25 C-0.84213692 23.14825294 -0.74892644 21.2909089 -0.68359375 19.43359375 C-0.62075195 17.7465332 -0.62075195 17.7465332 -0.55664062 16.02539062 C-0.51732422 14.84138672 -0.47800781 13.65738281 -0.4375 12.4375 C-0.39431641 11.24962891 -0.35113281 10.06175781 -0.30664062 8.83789062 C-0.20016454 5.89205216 -0.09815159 2.9461257 0 0 Z " fill="#FAB0A9" transform="translate(548,542)"/>
<path d="M0 0 C0.99 0.33 1.98 0.66 3 1 C2.46890625 1.58007812 1.9378125 2.16015625 1.390625 2.7578125 C-2.44359198 6.99784076 -6.00216242 11.12851393 -9 16 C-9.66 15.67 -10.32 15.34 -11 15 C-9.72954304 13.24972675 -8.45861894 11.49979256 -7.1875 9.75 C-6.12595703 8.28820312 -6.12595703 8.28820312 -5.04296875 6.796875 C-3.37845179 4.51810991 -1.69998177 2.25234178 0 0 Z " fill="#DD6D71" transform="translate(458,161)"/>
<path d="M0 0 C1 3 1 3 1.25 6.4375 C2.15896021 10.75506101 3.39881947 11.62849087 7 14 C7.66 14.66 8.32 15.32 9 16 C4.68433833 15.52048204 2.7980059 14.29764982 0 11 C-1.62651522 7.74696956 -1.11453156 4.60774398 -1 1 C-0.67 0.67 -0.34 0.34 0 0 Z " fill="#F4B2AB" transform="translate(512,469)"/>
<path d="M0 0 C0.33 0 0.66 0 1 0 C1.05380578 2.79192205 1.09357669 5.5828141 1.125 8.375 C1.14175781 9.1690625 1.15851563 9.963125 1.17578125 10.78125 C1.19335473 12.85492015 1.10335168 14.92883241 1 17 C0.34 17.66 -0.32 18.32 -1 19 C-2.60725635 15.78548731 -2.05748185 12.56387464 -2 9 C-1.67 9 -1.34 9 -1 9 C-0.67 6.03 -0.34 3.06 0 0 Z " fill="#EED3CA" transform="translate(483,398)"/>
<path d="M0 0 C0 0.33 0 0.66 0 1 C-7.72772107 1.13690844 -15.30881404 0.75166913 -23 0 C-23 -0.33 -23 -0.66 -23 -1 C-14.94313304 -2.1736381 -7.95420855 -1.67968453 0 0 Z " fill="#C37070" transform="translate(552,299)"/>
<path d="M0 0 C2.31 0 4.62 0 7 0 C7 0.66 7 1.32 7 2 C9.97 2 12.94 2 16 2 C16 2.33 16 2.66 16 3 C13.89590361 3.02701408 11.79170822 3.04640223 9.6875 3.0625 C8.51574219 3.07410156 7.34398437 3.08570313 6.13671875 3.09765625 C3 3 3 3 0 2 C0 1.34 0 0.68 0 0 Z " fill="#F6DBD8" transform="translate(784,499)"/>
<path d="M0 0 C2 3 2 3 1.828125 5.4453125 C1.63734375 6.32960938 1.4465625 7.21390625 1.25 8.125 C1.06953125 9.01445313 0.8890625 9.90390625 0.703125 10.8203125 C0.47109375 11.53960938 0.2390625 12.25890625 0 13 C-0.99 13.495 -0.99 13.495 -2 14 C-1.03644647 4.58997722 -1.03644647 4.58997722 0 0 Z " fill="#F9EAE7" transform="translate(691,746)"/>
<path d="M0 0 C4.52615993 3.67832017 8.39424999 7.41086363 12 12 C8.16780823 10.43873668 5.82638778 7.97133075 3 5 C2.401875 4.443125 1.80375 3.88625 1.1875 3.3125 C0 2 0 2 0 0 Z " fill="#F28E8A" transform="translate(452,703)"/>
<path d="M0 0 C3.24208567 0.35049575 4.61527704 0.56221181 6.8125 3.0625 C7.204375 3.701875 7.59625 4.34125 8 5 C7.34 6.32 6.68 7.64 6 9 C5.566875 8.071875 5.13375 7.14375 4.6875 6.1875 C3.27961373 3.52815927 2.23876444 1.91894095 0 0 Z " fill="#FAEAE8" transform="translate(886,479)"/>
<path d="M0 0 C0.5775 0.226875 1.155 0.45375 1.75 0.6875 C0.6053125 1.3371875 0.6053125 1.3371875 -0.5625 2 C-3.21286253 3.52502358 -3.21286253 3.52502358 -4.9375 5.375 C-5.370625 5.808125 -5.80375 6.24125 -6.25 6.6875 C-6.91 6.6875 -7.57 6.6875 -8.25 6.6875 C-6.65594781 2.8352072 -4.57967475 -0.63606594 0 0 Z " fill="#E07876" transform="translate(280.25,233.3125)"/>
<path d="M0 0 C-1.49097658 3.7952131 -3.75700849 5.61042731 -7 8 C-6.44414399 4.1090079 -4.34122117 0 0 0 Z " fill="#423734" transform="translate(298,414)"/>
<path d="M0 0 C1.98 0.99 1.98 0.99 4 2 C3.67 4.31 3.34 6.62 3 9 C2.67 9 2.34 9 2 9 C1.34 6.03 0.68 3.06 0 0 Z " fill="#FAE7E5" transform="translate(851,454)"/>
</svg>
